<svg width="22" height="22" viewBox="0 0 22 22" fill="none" xmlns="http://www.w3.org/2000/svg">
<path fill-rule="evenodd" clip-rule="evenodd" d="M5.58589 9.80835H0.000902176V11.7485C0.000902176 12.2282 0.39239 12.62 0.871706 12.62H2.88063L4.07894 13.2253L5.58594 12.62V9.80835H5.58589Z" fill="#FFEF60"/>
<path fill-rule="evenodd" clip-rule="evenodd" d="M4.71507 6.99292H0.871689C0.392373 6.99292 0.00088501 7.38471 0.00088501 7.86441V9.30606H5.58588V7.86441C5.58588 7.38471 5.19439 6.99292 4.71507 6.99292Z" fill="#FFEF60"/>
<path fill-rule="evenodd" clip-rule="evenodd" d="M5.58588 8.87158H0.00088501V10.2416H5.58588V8.87158Z" fill="#FF814E"/>
<path fill-rule="evenodd" clip-rule="evenodd" d="M1.16821 8.8716H0.453001H0.00251579V7.86446C0.00251579 7.53669 0.185735 7.25039 0.453001 7.10219C0.578469 7.03314 0.721512 6.99292 0.873363 6.99292H2.03906C1.55975 6.99292 1.16826 7.38471 1.16826 7.86441V8.8716H1.16821Z" fill="#FFCD1B"/>
<path fill-rule="evenodd" clip-rule="evenodd" d="M1.16406 10.2416H0.448848H-0.00163651V9.80839V9.30608V8.87158H0.448848H1.16406V9.30608V9.80839V10.2416Z" fill="#FF5A17"/>
<path fill-rule="evenodd" clip-rule="evenodd" d="M1.16827 10.2417V11.7487C1.16827 12.2284 1.55975 12.6202 2.03906 12.6202H0.873375C0.721568 12.6202 0.578526 12.5812 0.453016 12.5122C0.185753 12.3627 0.00253677 12.0764 0.00253677 11.7487V10.2417H0.453016H1.16827Z" fill="#FFCD1B"/>
<path fill-rule="evenodd" clip-rule="evenodd" d="M5.58589 12.6202H2.88058V13.8646C2.88058 14.1635 3.12525 14.4071 3.42263 14.4071H12.2308C12.2308 13.6248 12.2308 13.2267 11.6323 13.2267L10.4402 13.2254C9.68988 13.2242 9.19801 13.032 8.92323 12.6201H5.58589V12.6202Z" fill="#635448"/>
<path fill-rule="evenodd" clip-rule="evenodd" d="M11.1666 14.4072H3.42088C2.96666 15.1984 2.60151 16.149 2.91647 17.9674C3.44348 16.1741 8.79636 16.8899 9.34593 18.9594H15.2522C15.4755 18.4533 15.6863 17.9535 15.8708 17.4487H14.2057C10.8379 16.1778 11.9207 16.7442 11.1666 14.4072Z" fill="#FF8C5E"/>
<path fill-rule="evenodd" clip-rule="evenodd" d="M11.6439 9.54605C11.5285 10.1538 11.3717 10.7529 11.196 11.2627L9.49336 11.9298L7.59482 11.2627C7.66134 7.6699 9.00394 5.94698 10.1458 5.38941C10.5574 5.07604 10.979 4.95801 10.979 4.95801C10.979 4.95801 11.5336 5.84527 11.5624 5.84527C11.7757 6.3526 11.856 7.01441 11.8422 7.72894L11.6439 9.54605Z" fill="#FFFAFA"/>
<path fill-rule="evenodd" clip-rule="evenodd" d="M7.59534 11.2627H11.1965C12.026 11.3531 13.0461 11.9848 13.0461 13.9413V15.992L12.2288 16.4788L11.1665 15.992V14.4071C11.1665 13.6248 11.1665 13.2267 10.568 13.2267L9.37592 13.2255C8.62556 13.2242 8.13369 13.0321 7.85891 12.6202C7.64681 12.3025 7.56526 11.8542 7.59534 11.2627Z" fill="#FF8086"/>
<path fill-rule="evenodd" clip-rule="evenodd" d="M7.59532 11.2627C7.66183 7.66988 9.00443 5.94697 10.1463 5.3894C10.3157 5.50869 10.5039 5.60665 10.7109 5.67949C9.69958 6.44424 8.68574 8.15336 8.62803 11.2627H7.59532Z" fill="#FFC8C8"/>
<path fill-rule="evenodd" clip-rule="evenodd" d="M7.59566 11.2627H8.62832C8.5982 11.8542 8.67976 12.3025 8.89181 12.6202C9.06497 12.8802 9.32597 13.0999 9.68359 13.2255H9.37615C8.62579 13.2243 8.13393 13.0321 7.85914 12.6202C7.64713 12.3025 7.56558 11.8542 7.59566 11.2627Z" fill="#F76672"/>
<path fill-rule="evenodd" clip-rule="evenodd" d="M9.34375 18.9592C9.34375 17.1019 7.8719 15.6226 6.05625 15.6226C4.57937 15.6226 3.32963 16.6021 2.91429 17.9671C2.82896 18.2471 2.77877 18.5448 2.77 18.8537C2.76622 18.9743 2.84907 18.9592 2.96199 18.9592C5.08881 18.9592 7.21693 18.9579 9.34375 18.9592Z" fill="#FF8C5D"/>
<path fill-rule="evenodd" clip-rule="evenodd" d="M8.52006 18.9592H3.516C3.5875 20.3079 4.68041 21.3804 6.01803 21.3804C7.35565 21.3804 8.44856 20.3079 8.52006 18.9592Z" fill="#292019"/>
<path fill-rule="evenodd" clip-rule="evenodd" d="M21.2275 18.4255L16.9223 19.4164C17.1959 20.6056 18.3817 21.349 19.5699 21.0752C20.7594 20.8015 21.501 19.6148 21.2275 18.4255Z" fill="#292019"/>
<path fill-rule="evenodd" clip-rule="evenodd" d="M21.5495 17.2188C20.9409 16.3335 19.8844 15.8199 18.7802 15.9304C16.8328 16.3423 16.1991 17.5064 16.0724 18.9581C16.0749 19.1552 16.0963 19.3537 16.1389 19.5521C16.1515 19.6073 16.1879 19.5847 16.2481 19.5709L16.922 19.4164L21.2271 18.4256L21.5496 18.3515L22 18.2473C21.9134 17.8681 21.7578 17.5215 21.5495 17.2188Z" fill="#FFFAFA"/>
<path fill-rule="evenodd" clip-rule="evenodd" d="M18.7812 15.9252L17.0421 9.9075L16.2592 9.55713L15.3833 9.9075C16.5339 13.0972 16.2127 15.3237 15.436 17.4485C15.2503 17.9533 15.0395 18.4531 14.8174 18.9592H16.0684L18.7812 15.9252Z" fill="#FF814E"/>
<path fill-rule="evenodd" clip-rule="evenodd" d="M13.399 3.16033L11.3587 2.72583C11.1517 2.74465 10.5594 3.24197 10.5594 3.55341L10.9936 5.76105C11.1742 5.81506 11.3662 5.84518 11.5645 5.84518C12.6511 5.84518 13.532 4.96239 13.532 3.87486C13.532 3.62246 13.4856 3.38132 13.399 3.16033Z" fill="#FFECE4"/>
<path fill-rule="evenodd" clip-rule="evenodd" d="M14.0547 3.16031C14.0547 1.75635 12.943 0.619873 11.5702 0.619873C10.1975 0.619873 9.08577 1.75635 9.08577 3.16031C9.08577 4.08706 9.46222 4.91086 10.1448 5.38932C10.3882 5.56137 10.6718 5.68821 10.9905 5.76104V3.55335C10.9905 3.24191 11.1486 3.17913 11.3557 3.16027H13.3959H14.0547V3.16031Z" fill="#FF8C5D"/>
<path fill-rule="evenodd" clip-rule="evenodd" d="M12.8718 0.995334C12.4941 0.756728 12.0486 0.619873 11.5718 0.619873C10.1991 0.619873 9.08738 1.75635 9.08738 3.16031C9.08738 4.08706 9.46383 4.91086 10.1464 5.38932C10.3196 5.51113 10.5116 5.61035 10.7224 5.68318C10.218 5.17207 9.94444 4.43872 9.94444 3.62996C9.94444 2.16322 11.1076 0.973978 12.5418 0.973978C12.6535 0.973978 12.7639 0.980252 12.8718 0.995334Z" fill="#FF5A17"/>
<path fill-rule="evenodd" clip-rule="evenodd" d="M13.0477 15.9919H11.168V17.1762C11.168 17.4298 11.3061 17.4487 11.5093 17.4487H14.2071C14.2611 16.2607 13.5421 15.9919 13.0477 15.9919Z" fill="#635448"/>
<path fill-rule="evenodd" clip-rule="evenodd" d="M15.4392 17.4487C16.2159 15.3239 16.5371 13.0974 15.3865 9.90771H16.0314C16.0339 9.90771 16.0365 9.90771 16.039 9.90771H16.2711C17.4217 13.0974 17.1017 15.3239 16.3238 17.4487C16.1393 17.9535 15.9285 18.4533 15.7052 18.9594H15.2534H14.8205C15.0426 18.4533 15.2534 17.9535 15.4392 17.4487Z" fill="#FF5A17"/>
<path fill-rule="evenodd" clip-rule="evenodd" d="M16.0733 18.958L18.7811 15.9303C19.0609 15.9027 19.3382 15.914 19.6055 15.9629L17.0031 18.8726C17.0056 19.0421 17.0219 19.2141 17.0545 19.3862L16.9228 19.4163L16.2489 19.5708C16.1887 19.5846 16.1523 19.6072 16.1397 19.552C16.0971 19.3536 16.0758 19.1551 16.0733 18.958Z" fill="#FFC8C8"/>
<path fill-rule="evenodd" clip-rule="evenodd" d="M3.42135 14.4072H11.1671V15.0891H4.80284C4.28464 15.0891 4.03868 15.3126 3.83664 15.766C3.66223 16.1591 3.65845 16.2872 3.57943 16.7618C3.28205 17.1072 3.05367 17.5166 2.9169 17.9674C2.60198 16.149 2.96713 15.1984 3.42135 14.4072Z" fill="#FF5A17"/>
<path fill-rule="evenodd" clip-rule="evenodd" d="M3.57972 16.7615C4.18202 16.062 5.06915 15.6226 6.05915 15.6226C6.3076 15.6226 6.54852 15.6502 6.78064 15.7017C5.29873 16.0369 4.26228 17.3455 4.21712 18.8537C4.21463 18.9366 4.25227 18.9554 4.31247 18.9592H3.5157H2.96484C2.85192 18.9592 2.76908 18.9743 2.77286 18.8537C2.78162 18.5448 2.83181 18.2471 2.91715 17.9671C2.91964 17.9583 2.92217 17.9508 2.92467 17.9433C2.92467 17.9433 2.92467 17.9433 2.92467 17.942C3.06272 17.5012 3.28732 17.1006 3.57972 16.7615Z" fill="#FF5A17"/>
<path fill-rule="evenodd" clip-rule="evenodd" d="M17.0547 19.3862L21.2281 18.4255C21.2745 18.6227 21.2909 18.8211 21.2833 19.0145L17.9708 19.7768L17.8403 19.8069C17.9632 20.3469 18.2757 20.7952 18.691 21.0978C17.844 20.9484 17.1275 20.308 16.923 19.4164L17.0547 19.3862Z" fill="#635448"/>
<path fill-rule="evenodd" clip-rule="evenodd" d="M4.31225 18.9593H8.51953C8.50574 19.223 8.45177 19.4767 8.36519 19.714H5.43403H4.63726C4.66863 20.3042 4.89447 20.8404 5.25086 21.2586C4.28342 20.9409 3.57198 20.038 3.51552 18.9592H4.31225V18.9593Z" fill="#635448"/>
<path fill-rule="evenodd" clip-rule="evenodd" d="M2.87946 13.8646V12.6201H4.57968V13.8646C4.57968 14.1635 4.82435 14.4071 5.12173 14.4071H3.42151C3.12412 14.4071 2.87946 14.1635 2.87946 13.8646Z" fill="#292019"/>
<path fill-rule="evenodd" clip-rule="evenodd" d="M13.5195 3.66375H11.8431C11.6361 3.68257 11.478 3.74664 11.478 4.05807V5.84252C11.3099 5.835 11.1467 5.80737 10.9912 5.76088V3.55323C10.9912 3.2418 11.1492 3.17902 11.3563 3.16016H13.3966C13.458 3.31841 13.5007 3.48792 13.5195 3.66375Z" fill="#FFDDCE"/>
<path fill-rule="evenodd" clip-rule="evenodd" d="M17.4085 8.01264L15.0608 8.78869C14.9453 8.89165 15.0758 9.9415 15.1537 9.9076H17.0459H17.8828V8.17966C17.8828 7.83934 17.7059 7.91467 17.4085 8.01264Z" fill="#FFE07D"/>
<path fill-rule="evenodd" clip-rule="evenodd" d="M13.968 9.90751H14.165H15.155C15.7924 9.90751 15.8113 8.85013 15.0621 8.7886L13.968 8.70068L13.6744 9.32231L13.968 9.90751Z" fill="#FFECE4"/>
<path fill-rule="evenodd" clip-rule="evenodd" d="M11.8437 7.72885L11.4509 7.39103C10.4672 6.54339 9.2237 7.97373 10.5387 8.82765L11.6454 9.54596L12.2025 9.90763H13.9655V8.70081L12.8701 8.61165L11.8437 7.72885Z" fill="#FF8086"/>
<path fill-rule="evenodd" clip-rule="evenodd" d="M13.9677 9.90775V9.32256H14.2023H14.329H14.5273H15.5173C15.5549 9.32256 15.5901 9.32006 15.6239 9.3125C15.6603 9.60383 15.4959 9.90775 15.1546 9.90775H14.1646H13.9677Z" fill="#FFDDCE"/>
<path fill-rule="evenodd" clip-rule="evenodd" d="M10.5387 8.82773C9.74317 8.31034 9.88372 7.58327 10.3367 7.27686C10.3003 7.59079 10.4496 7.95121 10.9013 8.24382L11.7633 8.80263L12.0068 8.96213L12.5639 9.32255H13.9655V9.90775H12.2025L11.6454 9.54608L10.5387 8.82773Z" fill="#F76672"/>
<path fill-rule="evenodd" clip-rule="evenodd" d="M15.0602 8.78873L16.005 8.47729C16.3212 8.81636 16.4743 9.47688 16.2711 9.90764H15.3865H15.1531C15.4944 9.90764 15.6587 9.60372 15.6224 9.31239C15.5897 9.05999 15.4078 8.81761 15.0602 8.78873Z" fill="#FFC269"/>
</svg>
