<svg width="98" height="34" viewBox="0 0 98 34" fill="none" xmlns="http://www.w3.org/2000/svg">
<path d="M0.928009 22.6159L4.57601 21.8159C4.61868 22.4985 4.88534 23.0745 5.37601 23.5439C5.88801 23.9919 6.58134 24.2159 7.45601 24.2159C8.11734 24.2159 8.62934 24.0665 8.99201 23.7679C9.35468 23.4692 9.53601 23.0959 9.53601 22.6479C9.53601 21.8585 8.97068 21.3465 7.84001 21.1119L5.76001 20.6319C4.28801 20.3119 3.17868 19.7359 2.43201 18.9039C1.70668 18.0719 1.34401 17.0799 1.34401 15.9279C1.34401 14.4985 1.89868 13.2825 3.00801 12.2799C4.13868 11.2772 5.54668 10.7759 7.23201 10.7759C8.29868 10.7759 9.23734 10.9359 10.048 11.2559C10.8587 11.5545 11.488 11.9492 11.936 12.4399C12.384 12.9092 12.7253 13.3892 12.96 13.8799C13.1947 14.3705 13.344 14.8505 13.408 15.3199L9.85601 16.1199C9.77068 15.5652 9.51468 15.0745 9.08801 14.6479C8.68268 14.2212 8.07468 14.0079 7.26401 14.0079C6.70934 14.0079 6.22934 14.1572 5.82401 14.4559C5.44001 14.7545 5.24801 15.1279 5.24801 15.5759C5.24801 16.3439 5.72801 16.8132 6.68801 16.9839L8.92801 17.4639C10.4427 17.7839 11.5947 18.3705 12.384 19.2239C13.1947 20.0772 13.6 21.1012 13.6 22.2959C13.6 23.7039 13.0667 24.9199 12 25.9439C10.9333 26.9679 9.42934 27.4799 7.48801 27.4799C6.37868 27.4799 5.38668 27.3199 4.51201 26.9999C3.63734 26.6585 2.95468 26.2319 2.46401 25.7199C1.99468 25.1865 1.63201 24.6639 1.37601 24.1519C1.14134 23.6185 0.992009 23.1065 0.928009 22.6159Z" fill="#505050"/>
<path d="M25.601 26.9999C25.5157 26.5732 25.473 26.0079 25.473 25.3039C25.0677 26.0079 24.4597 26.5412 23.649 26.9039C22.8597 27.2452 22.017 27.4159 21.121 27.4159C19.265 27.4159 17.8037 26.8292 16.737 25.6559C15.6703 24.4612 15.137 22.9785 15.137 21.2079V11.2559H19.393V20.3439C19.393 21.2825 19.6383 22.0505 20.129 22.6479C20.6197 23.2239 21.3343 23.5119 22.273 23.5119C23.1903 23.5119 23.9157 23.2345 24.449 22.6799C24.9823 22.1039 25.249 21.3465 25.249 20.4079V11.2559H29.505V24.1519C29.505 25.1545 29.5583 26.1039 29.665 26.9999H25.601Z" fill="#505050"/>
<path d="M36.703 17.9439V26.9999H32.447V11.2559H36.575V13.2079C37.023 12.4399 37.663 11.8532 38.495 11.4479C39.327 11.0425 40.2017 10.8399 41.119 10.8399C42.975 10.8399 44.383 11.4265 45.343 12.5999C46.3243 13.7519 46.815 15.2452 46.815 17.0799V26.9999H42.559V17.8159C42.559 16.8772 42.3137 16.1199 41.823 15.5439C41.3537 14.9679 40.6283 14.6799 39.647 14.6799C38.751 14.6799 38.0363 14.9892 37.503 15.6079C36.9697 16.2265 36.703 17.0052 36.703 17.9439Z" fill="#505050"/>
<path d="M53.7905 17.9439V26.9999H49.5345V11.2559H53.6625V13.2079C54.1105 12.4399 54.7505 11.8532 55.5825 11.4479C56.4145 11.0425 57.2892 10.8399 58.2065 10.8399C60.0625 10.8399 61.4705 11.4265 62.4305 12.5999C63.4118 13.7519 63.9025 15.2452 63.9025 17.0799V26.9999H59.6465V17.8159C59.6465 16.8772 59.4012 16.1199 58.9105 15.5439C58.4412 14.9679 57.7158 14.6799 56.7345 14.6799C55.8385 14.6799 55.1238 14.9892 54.5905 15.6079C54.0572 16.2265 53.7905 17.0052 53.7905 17.9439Z" fill="#505050"/>
<path d="M71.7808 33.2079H67.2688L70.9808 25.0159L64.2928 11.2559H69.0608L73.2528 20.4719L77.1248 11.2559H81.6688L71.7808 33.2079Z" fill="#505050"/>
<path d="M87.128 1.84819V0.492188H80.156V1.84819H82.916V9.00019H84.356V1.84819H87.128Z" fill="#505050"/>
<path d="M97.6691 9.00019V0.492188H95.7131L92.9891 6.98419L90.2291 0.492188H88.3091V9.00019H89.7131V2.76019L92.3411 9.00019H93.5891L96.2411 2.73619V9.00019H97.6691Z" fill="#505050"/>
</svg>
