<svg width="93" height="98" viewBox="0 0 93 98" fill="none" xmlns="http://www.w3.org/2000/svg">
<path d="M85 55.5C85 78.9721 65.9721 98 42.5 98C19.0279 98 0 78.9721 0 55.5C0 32.0279 19.0279 13 42.5 13C65.9721 13 85 32.0279 85 55.5Z" fill="#F8F8F8"/>
<path d="M42.5 13C50.9057 13 59.1226 15.4926 66.1117 20.1625C73.1008 24.8325 78.5482 31.4701 81.7649 39.236C84.9816 47.0018 85.8232 55.5471 84.1834 63.7913C82.5435 72.0355 78.4958 79.6083 72.552 85.552C66.6083 91.4958 59.0355 95.5435 50.7913 97.1834C42.5471 98.8232 34.0018 97.9816 26.236 94.7649C18.4701 91.5482 11.8325 86.1008 7.16254 79.1117C2.49258 72.1226 -2.00474e-07 63.9057 0 55.5H42.5V13Z" fill="#AC1C2E"/>
<path d="M93 8C93 12.4183 89.4183 16 85 16C80.5817 16 77 12.4183 77 8C77 3.58172 80.5817 0 85 0C89.4183 0 93 3.58172 93 8Z" fill="#FEB800"/>
</svg>
