<svg width="20" height="19" viewBox="0 0 20 19" fill="none" xmlns="http://www.w3.org/2000/svg">
<path fill-rule="evenodd" clip-rule="evenodd" d="M3.69865 4.99988L8.09725 0.784552C9.16095 -0.234824 10.839 -0.234825 11.9027 0.784552L16.3013 4.99988H18.847C19.4555 4.99988 19.923 5.53887 19.8369 6.1413L18.368 16.4241C18.1568 17.9021 16.8911 18.9999 15.3981 18.9999H4.6019C3.10895 18.9999 1.84318 17.9021 1.63205 16.4241L0.16307 6.1413C0.0770085 5.53886 0.544471 4.99988 1.15302 4.99988H3.69865ZM9.13511 1.86753C9.61861 1.40418 10.3814 1.40418 10.8649 1.86753L14.1334 4.99988H5.86658L9.13511 1.86753ZM1.72952 6.49988L3.11697 16.212C3.22254 16.951 3.85542 17.4999 4.6019 17.4999H15.3981C16.1446 17.4999 16.7775 16.951 16.883 16.212L18.2705 6.49988H1.72952Z" fill="black"/>
</svg>
